<?xml version="1.0" standalone="no"?>
<!DOCTYPE svg PUBLIC "-//W3C//DTD SVG 20010904//EN"
 "http://www.w3.org/TR/2001/REC-SVG-20010904/DTD/svg10.dtd">
<svg version="1.0" xmlns="http://www.w3.org/2000/svg"
 width="2048.000000pt" height="2048.000000pt" viewBox="0 0 2048.000000 2048.000000"
 preserveAspectRatio="xMidYMid meet">
<metadata>
Created by potrace 1.14, written by Peter Selinger 2001-2017
</metadata>
<g transform="translate(0.000000,2048.000000) scale(0.100000,-0.100000)"
fill="#000000" stroke="none">
<path d="M9225 18041 c-119 -34 -222 -105 -285 -196 -28 -41 -169 -273 -630
-1035 -125 -206 -318 -526 -430 -710 -112 -184 -306 -506 -433 -715 -126 -209
-245 -404 -263 -433 -19 -29 -34 -54 -34 -57 0 -3 -15 -29 -34 -58 -19 -29
-43 -69 -54 -88 -10 -19 -75 -126 -144 -239 -127 -209 -607 -1001 -637 -1051
-9 -16 -97 -162 -197 -326 -253 -416 -638 -1053 -655 -1083 -8 -14 -17 -27
-20 -30 -3 -3 -36 -57 -73 -120 -72 -123 -82 -139 -371 -615 -172 -284 -420
-692 -448 -740 -7 -10 -22 -37 -35 -58 -13 -21 -73 -120 -134 -220 -177 -291
-211 -348 -217 -362 -2 -5 -23 -39 -46 -75 -23 -36 -96 -155 -162 -265 -66
-110 -191 -317 -278 -460 -87 -143 -176 -291 -199 -330 -22 -38 -42 -72 -46
-75 -3 -3 -43 -68 -89 -145 -96 -160 -980 -1622 -1231 -2035 -290 -477 -482
-794 -500 -825 -9 -16 -49 -82 -87 -145 -161 -265 -477 -787 -493 -815 -10
-16 -145 -239 -300 -495 -156 -256 -290 -477 -299 -492 -16 -28 -86 -144 -255
-423 -53 -88 -106 -184 -117 -215 -27 -70 -34 -221 -13 -299 45 -168 173 -306
340 -366 58 -20 210 -28 274 -14 80 18 183 75 247 136 49 47 97 121 267 403
114 190 216 357 227 372 10 15 19 30 19 33 0 5 11 23 76 125 21 33 521 860
555 918 9 15 87 144 174 287 87 143 165 271 172 285 8 14 81 135 163 270 135
221 574 946 603 995 7 11 27 44 46 75 19 30 42 69 51 85 10 17 89 147 175 290
349 574 477 785 573 945 40 67 394 652 565 934 54 88 97 163 97 168 0 4 4 8 9
8 5 0 11 6 13 13 2 6 49 89 106 182 56 94 193 319 303 500 110 182 240 398
290 480 50 83 153 254 230 380 77 127 161 264 186 305 24 41 73 122 108 180
35 58 81 134 103 170 60 99 445 736 668 1103 109 180 207 342 217 359 10 17
71 117 134 222 141 232 310 511 555 916 102 168 198 327 214 353 16 26 43 71
60 100 17 29 102 169 189 312 87 143 165 271 172 285 8 14 29 48 46 76 28 44
205 336 232 382 92 157 359 592 361 589 2 -2 4 -2879 4 -6393 1 -5431 3 -6398
15 -6447 42 -179 176 -323 350 -378 128 -41 257 -30 380 31 129 64 222 167
267 300 l23 65 0 7385 c0 4062 -3 7399 -6 7415 -40 183 -164 322 -351 391 -64
23 -219 26 -293 5z"/>
<path d="M10985 18043 c-196 -36 -365 -199 -407 -393 -13 -56 -14 -1074 -11
-7418 3 -6677 4 -7360 19 -7415 69 -270 335 -436 608 -380 73 15 163 56 206
92 61 53 77 68 101 101 40 54 78 134 93 197 11 48 13 1147 11 6455 l-2 6397
66 -107 c61 -98 233 -380 256 -420 6 -9 62 -102 125 -205 63 -103 120 -197
127 -210 7 -12 17 -29 23 -37 29 -42 130 -214 130 -221 0 -5 4 -9 9 -9 5 0 11
-6 13 -13 2 -7 93 -160 203 -340 110 -180 208 -341 217 -357 10 -16 61 -101
114 -187 53 -87 122 -201 154 -253 88 -145 445 -732 514 -845 34 -55 66 -108
71 -117 18 -32 516 -852 540 -888 13 -19 94 -152 180 -295 87 -143 277 -456
423 -695 146 -239 316 -520 380 -625 63 -104 125 -206 137 -225 13 -19 154
-251 314 -515 160 -264 295 -485 301 -492 5 -7 10 -15 10 -18 0 -4 15 -30 34
-58 36 -57 227 -371 258 -427 11 -19 24 -40 28 -45 5 -6 64 -103 133 -215 68
-113 188 -311 267 -440 78 -129 150 -247 159 -262 42 -71 526 -865 672 -1103
91 -148 143 -235 194 -322 11 -18 103 -170 205 -336 102 -166 190 -310 195
-319 6 -10 46 -78 91 -150 245 -402 338 -556 353 -580 9 -14 52 -86 96 -158
44 -72 85 -139 90 -148 6 -10 53 -87 105 -172 52 -85 102 -167 110 -181 8 -14
56 -92 105 -173 50 -81 97 -159 106 -174 9 -15 53 -88 99 -162 45 -74 91 -149
100 -166 10 -17 41 -69 69 -115 29 -46 56 -91 61 -99 105 -175 162 -242 251
-298 105 -67 251 -92 376 -66 195 40 360 205 402 399 7 35 9 2256 7 7420 l-3
7370 -22 66 c-91 284 -404 435 -682 330 -164 -63 -294 -219 -325 -392 -4 -24
-7 -1664 -6 -3644 2 -5582 3 -9127 3 -9159 -1 -23 -22 6 -108 148 -60 97 -118
194 -131 214 -12 20 -31 53 -42 72 -11 19 -59 98 -106 175 -48 77 -95 154
-104 170 -10 17 -53 89 -97 160 -44 72 -213 348 -375 615 -162 267 -326 536
-364 597 -38 62 -78 128 -89 147 -15 26 -182 300 -266 436 -5 8 -27 44 -48 80
-31 51 -130 214 -201 330 -28 46 -163 268 -310 510 -92 151 -218 358 -280 460
-62 102 -121 199 -130 215 -10 17 -62 102 -115 190 -54 88 -143 234 -198 325
-55 91 -115 188 -132 215 -18 28 -55 88 -82 135 -41 69 -113 189 -212 350 -23
37 -290 475 -406 665 -70 116 -136 224 -145 240 -9 17 -57 95 -106 175 -87
140 -1063 1742 -1095 1798 -18 29 -190 312 -309 507 -40 66 -123 203 -185 305
-62 102 -163 268 -225 370 -178 291 -420 689 -463 760 -21 36 -84 140 -140
232 -56 92 -164 269 -241 395 -76 125 -178 293 -227 373 -49 80 -113 185 -141
233 -29 49 -60 99 -68 112 -39 62 -257 420 -275 451 -11 19 -103 171 -205 337
-102 166 -190 311 -196 322 -61 111 -134 216 -181 263 -41 40 -136 102 -157
102 -8 0 -17 4 -20 9 -7 10 -107 32 -166 35 -25 1 -76 -3 -115 -11z"/>
<path d="M5372 9078 c-186 -28 -352 -181 -408 -373 -21 -74 -22 -202 -1 -273
56 -186 212 -333 395 -371 38 -8 461 -11 1420 -11 1303 0 1370 1 1428 19 91
27 161 69 225 132 99 99 148 208 154 344 11 246 -150 464 -386 524 -70 18
-139 19 -1424 18 -742 0 -1374 -4 -1403 -9z"/>
<path d="M12224 9061 c-233 -77 -371 -275 -360 -518 10 -229 166 -420 391
-479 40 -11 315 -14 1420 -14 1492 0 1421 -3 1540 55 252 124 357 436 232 692
-58 120 -159 209 -295 262 l-67 26 -1391 1 -1390 1 -80 -26z"/>
</g>
</svg>
